<svg xmlns="http://www.w3.org/2000/svg" viewBox="0 0 1500 870"
     font-family="ui-sans-serif, -apple-system, 'Segoe UI', system-ui, Helvetica, sans-serif">
  <defs>
    <filter id="shadow" x="-20%" y="-20%" width="140%" height="140%">
      <feGaussianBlur in="SourceAlpha" stdDeviation="1.2"/>
      <feOffset dy="1.5"/>
      <feComponentTransfer><feFuncA type="linear" slope="0.14"/></feComponentTransfer>
      <feMerge><feMergeNode/><feMergeNode in="SourceGraphic"/></feMerge>
    </filter>
    <marker id="ar-blue" viewBox="0 0 10 10" refX="9" refY="5" markerWidth="7" markerHeight="7" orient="auto-start-reverse">
      <path d="M0,1 L10,5 L0,9 Z" fill="#3D6BA8"/>
    </marker>
    <marker id="ar-blue-sm" viewBox="0 0 10 10" refX="9" refY="5" markerWidth="5" markerHeight="5" orient="auto-start-reverse">
      <path d="M0,1 L10,5 L0,9 Z" fill="#3D6BA8"/>
    </marker>
    <marker id="ar-gray" viewBox="0 0 10 10" refX="9" refY="5" markerWidth="6" markerHeight="6" orient="auto-start-reverse">
      <path d="M0,1 L10,5 L0,9 Z" fill="#9A9387"/>
    </marker>
  </defs>

  <rect width="1500" height="870" fill="#FAF9F5"/>

  <!-- ===== HEADER ===== -->
  <text x="36" y="38" font-size="22" font-weight="700" fill="#2D2D2D" letter-spacing="-0.3">AgenticSys v2 — Architecture </text>
  <text x="36" y="58" font-size="12" fill="#7A7569">Reviewer Q&amp;A · merged ChatAgent boundary · Orchestrator at top drives three paths</text>
  <line x1="36" y1="72" x2="1464" y2="72" stroke="#E5E0D2"/>

  <!-- ============================================================== -->
  <!-- SECTION A — Conversation Boundary                                -->
  <!-- ============================================================== -->
  <text x="36" y="100" font-size="10" font-weight="700" fill="#A89B7C" letter-spacing="2">A · CONVERSATION BOUNDARY</text>

  <g filter="url(#shadow)">
    <rect x="465" y="112" width="170" height="40" rx="20" fill="#DCE7F4" stroke="#3D6BA8" stroke-width="1.4"/>
    <text x="550" y="137" font-size="13" font-weight="600" fill="#1F3A5F" text-anchor="middle">Reviewer</text>
  </g>

  <!-- ChatAgent (card with coral header) -->
  <g filter="url(#shadow)">
    <rect x="290" y="178" width="520" height="78" rx="8" fill="#FFFFFF" stroke="#D4C5A9" stroke-width="0.8"/>
    <path d="M290,186 a8,8 0 0 1 8,-8 h504 a8,8 0 0 1 8,8 v14 h-520 z" fill="#3D6BA8"/>
    <text x="550" y="194" font-size="13" font-weight="700" fill="#FFFFFF" text-anchor="middle">ChatAgent</text>
    <text x="550" y="218" font-size="9.5" fill="#7A7569" text-anchor="middle" font-style="italic">guardrail + chat · loads four skills:</text>

    <rect x="335" y="226" width="80" height="22" rx="11" fill="#F4F0E6" stroke="#D4C5A9"/>
    <text x="375" y="241" font-size="10" fill="#5C5044" text-anchor="middle">redact</text>
    <rect x="421" y="226" width="138" height="22" rx="11" fill="#F4F0E6" stroke="#D4C5A9"/>
    <text x="490" y="241" font-size="10" fill="#5C5044" text-anchor="middle">relevance_check</text>
    <rect x="565" y="226" width="98" height="22" rx="11" fill="#F4F0E6" stroke="#D4C5A9"/>
    <text x="614" y="241" font-size="10" fill="#5C5044" text-anchor="middle">acropedia</text>
    <rect x="669" y="226" width="106" height="22" rx="11" fill="#F4F0E6" stroke="#D4C5A9"/>
    <text x="722" y="241" font-size="10" fill="#5C5044" text-anchor="middle">web_browser</text>
  </g>

  <line x1="510" y1="152" x2="510" y2="176" stroke="#3D6BA8" stroke-width="2.5" marker-end="url(#ar-blue)"/>
  <text x="498" y="170" font-size="10" fill="#1F3A5F" text-anchor="end" font-style="italic">question</text>
  <path d="M590,176 L590,152" stroke="#3D6BA8" stroke-width="2" stroke-dasharray="4,3" marker-end="url(#ar-blue)" fill="none"/>
  <text x="600" y="170" font-size="10" fill="#1F3A5F" font-style="italic">answer</text>

  <line x1="550" y1="256" x2="550" y2="304" stroke="#3D6BA8" stroke-width="2.5" marker-end="url(#ar-blue)"/>

  <!-- ============================================================== -->
  <!-- SECTION B — Orchestrator (top) + 3 Paths                         -->
  <!-- ============================================================== -->
  <text x="36" y="290" font-size="10" font-weight="700" fill="#A89B7C" letter-spacing="2">B · ORCHESTRATOR — three paths to FinalAnswer</text>

  <rect x="40" y="300" width="1050" height="510" rx="14" fill="#F4F0E6" stroke="#D4C5A9" stroke-width="1" opacity="0.55"/>

  <!-- Orchestrator card (full-width, white body + coral header) -->
  <g filter="url(#shadow)">
    <rect x="70" y="312" width="990" height="90" rx="8" fill="#FFFFFF" stroke="#D4C5A9" stroke-width="0.8"/>
    <path d="M70,320 a8,8 0 0 1 8,-8 h974 a8,8 0 0 1 8,8 v14 h-990 z" fill="#3D6BA8"/>
    <text x="565" y="328" font-size="14" font-weight="700" fill="#FFFFFF" text-anchor="middle">Orchestrator</text>
    <text x="565" y="350" font-size="9.5" fill="#7A7569" text-anchor="middle" font-style="italic">single fixed agent · drives all three paths</text>

    <!-- Two skill groups, brought close together near the center -->
    <text x="455" y="368" font-size="9" fill="#4F6B8C" text-anchor="middle" font-style="italic">when constructing team:</text>
    <text x="675" y="368" font-size="9" fill="#4F6B8C" text-anchor="middle" font-style="italic">when synthesizing answer:</text>

    <rect x="370" y="376" width="120" height="20" rx="10" fill="#F4F0E6" stroke="#D4C5A9"/>
    <text x="430" y="390" font-size="9.5" fill="#5C5044" text-anchor="middle">team_construction</text>
    <rect x="496" y="376" width="86" height="20" rx="10" fill="#F4F0E6" stroke="#D4C5A9"/>
    <text x="539" y="390" font-size="9.5" fill="#5C5044" text-anchor="middle">data_catalog</text>

    <line x1="595" y1="370" x2="595" y2="396" stroke="#E5E0D2"/>

    <rect x="608" y="376" width="74" height="20" rx="10" fill="#F4F0E6" stroke="#D4C5A9"/>
    <text x="645" y="390" font-size="9.5" fill="#5C5044" text-anchor="middle">balancing</text>
    <rect x="688" y="376" width="74" height="20" rx="10" fill="#F4F0E6" stroke="#D4C5A9"/>
    <text x="725" y="390" font-size="9.5" fill="#5C5044" text-anchor="middle">synthesis</text>
  </g>

  <!-- Plain dispatch arrows (no numbered badges, no text labels) -->
  <line x1="215" y1="404" x2="215" y2="426" stroke="#3D6BA8" stroke-width="2" marker-end="url(#ar-blue-sm)"/>
  <line x1="620" y1="404" x2="620" y2="426" stroke="#3D6BA8" stroke-width="2" marker-end="url(#ar-blue-sm)"/>
  <line x1="970" y1="404" x2="970" y2="426" stroke="#A89B7C" stroke-width="1.6" stroke-dasharray="4,3" marker-end="url(#ar-gray)"/>

  <!-- ──────────────────────── PATH 1: REPORT (290 wide) ──────────── -->
  <rect x="70" y="430" width="290" height="370" rx="11" fill="#FFFFFF" stroke="#D4C5A9" stroke-width="1" opacity="0.6"/>
  <circle cx="90" cy="448" r="11" fill="#3D6BA8"/>
  <text x="90" y="452" font-size="11" font-weight="700" fill="#FFFFFF" text-anchor="middle">1</text>
  <text x="108" y="452" font-size="12" font-weight="700" fill="#2D2D2D">REPORT</text>
  <text x="350" y="452" font-size="9.5" fill="#9A9387" text-anchor="end" font-style="italic">parallel branch</text>

  <!-- ReportAgent card (coral header) -->
  <g filter="url(#shadow)">
    <rect x="90" y="476" width="250" height="76" rx="8" fill="#FFFFFF" stroke="#D4C5A9" stroke-width="0.8"/>
    <path d="M90,484 a8,8 0 0 1 8,-8 h234 a8,8 0 0 1 8,8 v14 h-250 z" fill="#3D6BA8"/>
    <text x="215" y="492" font-size="12" font-weight="700" fill="#FFFFFF" text-anchor="middle">ReportAgent</text>
    <text x="215" y="514" font-size="9.5" fill="#7A7569" text-anchor="middle" font-style="italic">loads skills:</text>
    <rect x="102" y="522" width="108" height="22" rx="11" fill="#F4F0E6" stroke="#D4C5A9"/>
    <text x="156" y="537" font-size="9.5" fill="#5C5044" text-anchor="middle">report_needle</text>
    <rect x="218" y="522" width="112" height="22" rx="11" fill="#F4F0E6" stroke="#D4C5A9"/>
    <text x="274" y="537" font-size="9.5" fill="#5C5044" text-anchor="middle">report_analysis</text>
  </g>

  <text x="215" y="572" font-size="9.5" fill="#7A7569" text-anchor="middle">2-step chain · scans</text>
  <text x="215" y="586" font-size="9.5" fill="#7A7569" text-anchor="middle">reports/&lt;case-id&gt;/*.md</text>
  <text x="215" y="606" font-size="9.5" fill="#7A7569" text-anchor="middle">runs concurrently with</text>
  <text x="215" y="620" font-size="9.5" fill="#7A7569" text-anchor="middle">team workflow</text>
  <text x="215" y="640" font-size="9" fill="#9A9387" text-anchor="middle" font-style="italic">coverage = full | partial | none</text>
  <text x="215" y="654" font-size="9" fill="#9A9387" text-anchor="middle" font-style="italic">"none" → short-circuit</text>

  <line x1="215" y1="666" x2="215" y2="746" stroke="#9A9387" stroke-width="1.2" stroke-dasharray="4,4" fill="none"/>

  <g filter="url(#shadow)">
    <rect x="105" y="746" width="220" height="34" rx="17" fill="#DCE7F4" stroke="#3D6BA8" stroke-width="1.4"/>
    <text x="215" y="762" font-size="11" font-weight="700" fill="#1F3A5F" text-anchor="middle">ReportDraft</text>
    <text x="215" y="774" font-size="9" fill="#4F6B8C" text-anchor="middle" font-style="italic">answer + verbatim excerpts</text>
  </g>

  <!-- ───────────── PATH 2: TEAM ORCHESTRATION (490 wide) ─────────── -->
  <rect x="375" y="430" width="490" height="370" rx="11" fill="#FFFFFF" stroke="#D4C5A9" stroke-width="1" opacity="0.6"/>
  <circle cx="395" cy="448" r="11" fill="#3D6BA8"/>
  <text x="395" y="452" font-size="11" font-weight="700" fill="#FFFFFF" text-anchor="middle">2</text>
  <text x="413" y="452" font-size="12" font-weight="700" fill="#2D2D2D">TEAM ORCHESTRATION</text>
  <text x="855" y="452" font-size="9.5" fill="#9A9387" text-anchor="end" font-style="italic">main pipeline</text>

  <text x="620" y="472" font-size="10" fill="#5C5044" text-anchor="middle" font-style="italic">e.g. "Is default risk elevated for this case?"</text>

  <!-- Curly brace embracing 3 BaseSpec rows -->
  <path d="M 410,488 C 410,506 398,524 394,529 C 398,548 410,566 410,572"
        fill="none" stroke="#7A7569" stroke-width="1.5"/>

  <!-- BaseSpec rows: blue pill (agent) + cream pills (skills) -->
  <!-- Spec 1: bureau -->
  <rect x="425" y="486" width="120" height="22" rx="11" fill="#3D6BA8"/>
  <text x="485" y="500" font-size="10" font-weight="700" fill="#FFFFFF" text-anchor="middle">BaseSpec · bureau</text>
  <rect x="549" y="486" width="128" height="22" rx="11" fill="#F4F0E6" stroke="#D4C5A9"/>
  <text x="613" y="500" font-size="9.5" fill="#5C5044" text-anchor="middle">domain/bureau</text>
  <rect x="681" y="486" width="70" height="22" rx="11" fill="#F4F0E6" stroke="#D4C5A9"/>
  <text x="716" y="500" font-size="9.5" fill="#5C5044" text-anchor="middle">data_query</text>
  <rect x="755" y="486" width="84" height="22" rx="11" fill="#F4F0E6" stroke="#D4C5A9"/>
  <text x="797" y="500" font-size="9.5" fill="#5C5044" text-anchor="middle">data_analysis</text>

  <!-- Spec 2: modeling -->
  <rect x="425" y="514" width="120" height="22" rx="11" fill="#3D6BA8"/>
  <text x="485" y="528" font-size="10" font-weight="700" fill="#FFFFFF" text-anchor="middle">BaseSpec · modeling</text>
  <rect x="549" y="514" width="128" height="22" rx="11" fill="#F4F0E6" stroke="#D4C5A9"/>
  <text x="613" y="528" font-size="9.5" fill="#5C5044" text-anchor="middle">domain/modeling</text>
  <rect x="681" y="514" width="70" height="22" rx="11" fill="#F4F0E6" stroke="#D4C5A9"/>
  <text x="716" y="528" font-size="9.5" fill="#5C5044" text-anchor="middle">data_query</text>
  <rect x="755" y="514" width="84" height="22" rx="11" fill="#F4F0E6" stroke="#D4C5A9"/>
  <text x="797" y="528" font-size="9.5" fill="#5C5044" text-anchor="middle">data_analysis</text>

  <!-- Spec 3: capacity -->
  <rect x="425" y="542" width="120" height="22" rx="11" fill="#3D6BA8"/>
  <text x="485" y="556" font-size="10" font-weight="700" fill="#FFFFFF" text-anchor="middle">BaseSpec · capacity</text>
  <rect x="549" y="542" width="128" height="22" rx="11" fill="#F4F0E6" stroke="#D4C5A9"/>
  <text x="613" y="556" font-size="9.5" fill="#5C5044" text-anchor="middle">domain/capacity_afford</text>
  <rect x="681" y="542" width="70" height="22" rx="11" fill="#F4F0E6" stroke="#D4C5A9"/>
  <text x="716" y="556" font-size="9.5" fill="#5C5044" text-anchor="middle">data_query</text>
  <rect x="755" y="542" width="84" height="22" rx="11" fill="#F4F0E6" stroke="#D4C5A9"/>
  <text x="797" y="556" font-size="9.5" fill="#5C5044" text-anchor="middle">data_analysis</text>

  <!-- Dynamics indicator -->
  <text x="385" y="533" font-size="11" font-weight="700" fill="#3D6BA8" text-anchor="middle">× N</text>
  <text x="620" y="586" font-size="9" fill="#1F3A5F" text-anchor="middle" font-style="italic">team is dynamic — Orchestrator picks N specialists from 7 domains per question</text>
  <text x="620" y="599" font-size="9" fill="#9A9387" text-anchor="middle" font-style="italic">(this question shows 3; could be 1 — 7 depending on team_construction)</text>

  <!-- Convergence arrows specs → peer review -->
  <path d="M 500,564 Q 510,594 615,634" stroke="#9A9387" stroke-width="1" fill="none" marker-end="url(#ar-gray)"/>
  <path d="M 620,564 L 620,634" stroke="#9A9387" stroke-width="1" fill="none" marker-end="url(#ar-gray)"/>
  <path d="M 740,564 Q 730,594 625,634" stroke="#9A9387" stroke-width="1" fill="none" marker-end="url(#ar-gray)"/>

  <!-- GeneralSpec card (coral header) -->
  <g filter="url(#shadow)">
    <rect x="395" y="638" width="450" height="90" rx="8" fill="#FFFFFF" stroke="#D4C5A9" stroke-width="0.8"/>
    <path d="M395,646 a8,8 0 0 1 8,-8 h434 a8,8 0 0 1 8,8 v14 h-450 z" fill="#3D6BA8"/>
    <text x="620" y="654" font-size="12" font-weight="700" fill="#FFFFFF" text-anchor="middle">GeneralSpec  ·  peer review</text>

    <text x="408" y="678" font-size="9.5" fill="#7A7569" font-style="italic">loads:</text>
    <rect x="446" y="670" width="80" height="20" rx="10" fill="#F4F0E6" stroke="#D4C5A9"/>
    <text x="486" y="684" font-size="9.5" fill="#5C5044" text-anchor="middle">comparison</text>
    <text x="538" y="684" font-size="9" fill="#4F6B8C" font-style="italic">pairwise — itertools.combinations(specs, 2)</text>

    <text x="408" y="703" font-size="9.5" fill="#5C5044">▸ bureau ↔ modeling</text>
    <text x="608" y="703" font-size="9.5" fill="#5C5044">▸ bureau ↔ capacity_afford</text>
    <text x="408" y="719" font-size="9.5" fill="#5C5044">▸ modeling ↔ capacity_afford</text>
    <text x="608" y="719" font-size="9" fill="#4F6B8C" font-style="italic">→ ReviewReport</text>
  </g>

  <line x1="620" y1="730" x2="620" y2="744" stroke="#9A9387" stroke-width="1" stroke-dasharray="3,3" fill="none"/>

  <g filter="url(#shadow)">
    <rect x="500" y="746" width="240" height="34" rx="17" fill="#DCE7F4" stroke="#3D6BA8" stroke-width="1.4"/>
    <text x="620" y="762" font-size="11" font-weight="700" fill="#1F3A5F" text-anchor="middle">FinalAnswer</text>
    <text x="620" y="774" font-size="9" fill="#4F6B8C" text-anchor="middle" font-style="italic">Orch synthesizes (balancing → synthesis)</text>
  </g>

  <!-- ──────────────────── PATH 3: FURTHER PULL DATA (180 wide) ───── -->
  <rect x="880" y="430" width="180" height="370" rx="11" fill="#FFFFFF" stroke="#A89B7C" stroke-width="1" stroke-dasharray="6,4" opacity="0.6"/>
  <circle cx="898" cy="448" r="11" fill="#A89B7C"/>
  <text x="898" y="452" font-size="11" font-weight="700" fill="#FFFFFF" text-anchor="middle">3</text>
  <text x="918" y="452" font-size="11" font-weight="700" fill="#5C5044">PULL DATA</text>
  <text x="1050" y="468" font-size="9" fill="#9A9387" text-anchor="end" font-style="italic">conceptual</text>

  <g filter="url(#shadow)">
    <rect x="892" y="478" width="156" height="170" rx="8" fill="#FFFFFF" stroke="#A89B7C" stroke-width="1" stroke-dasharray="6,4"/>
    <text x="970" y="498" font-size="10" font-weight="700" fill="#5C5044" text-anchor="middle">no agent</text>
    <text x="970" y="512" font-size="9" fill="#7A7569" text-anchor="middle" font-style="italic">Orch-emitted signal</text>

    <text x="970" y="534" font-size="9" fill="#4F6B8C" text-anchor="middle" font-style="italic">consults:</text>
    <rect x="906" y="540" width="128" height="20" rx="10" fill="#F4F0E6" stroke="#D4C5A9"/>
    <text x="970" y="554" font-size="9.5" fill="#5C5044" text-anchor="middle">data_catalog</text>
    <rect x="906" y="564" width="128" height="20" rx="10" fill="#F4F0E6" stroke="#D4C5A9"/>
    <text x="970" y="578" font-size="9.5" fill="#5C5044" text-anchor="middle">balancing</text>

    <text x="970" y="602" font-size="8.5" fill="#7A7569" text-anchor="middle">emitted when combined</text>
    <text x="970" y="614" font-size="8.5" fill="#7A7569" text-anchor="middle">evidence is insufficient</text>
    <text x="970" y="630" font-size="8" fill="#9A9387" text-anchor="middle" font-style="italic">today: recommendation only</text>
    <text x="970" y="642" font-size="8" fill="#9A9387" text-anchor="middle" font-style="italic">future: re-pull + re-run</text>
  </g>

  <line x1="970" y1="652" x2="970" y2="746" stroke="#A89B7C" stroke-width="1" stroke-dasharray="3,3" fill="none"/>

  <g filter="url(#shadow)">
    <rect x="892" y="746" width="156" height="34" rx="17" fill="#F0EAD8" stroke="#A89B7C" stroke-width="1.4" stroke-dasharray="5,3"/>
    <text x="970" y="762" font-size="10.5" font-weight="700" fill="#5C5044" text-anchor="middle">DataPullRequest</text>
    <text x="970" y="774" font-size="8.5" fill="#7A7569" text-anchor="middle" font-style="italic">tables + reason</text>
  </g>

  <!-- Orchestrator → ChatAgent return arrow -->
  <path d="M1080,357 Q1108,357 1108,235 Q1108,210 815,210" stroke="#3D6BA8" stroke-width="2" stroke-dasharray="5,3" fill="none" marker-end="url(#ar-blue)"/>
  <text x="1090" y="262" font-size="9.5" fill="#1F3A5F" font-style="italic" text-anchor="end">FinalAnswer</text>
  <text x="1090" y="276" font-size="9.5" fill="#1F3A5F" font-style="italic" text-anchor="end">→ ChatAgent</text>

  <!-- ============================================================== -->
  <!-- RIGHT PANEL A — Skills Repository (no visual-vocab box)          -->
  <!-- ============================================================== -->
  <rect x="1110" y="84" width="340" height="616" rx="14" fill="#F4F0E6" stroke="#A89B7C" stroke-width="1" opacity="0.45"/>
  <text x="1280" y="108" font-size="11" font-weight="700" fill="#5C5044" letter-spacing="2" text-anchor="middle">SKILLS REPOSITORY</text>
  <text x="1280" y="124" font-size="9.5" fill="#7A7569" text-anchor="middle" font-style="italic">loaded by skills.loader · injected at LLM calls</text>

  <rect x="1124" y="138" width="312" height="220" rx="9" fill="#FFFFFF" stroke="#D4C5A9"/>
  <text x="1136" y="156" font-size="11" font-weight="700" fill="#2D2D2D">workflow/</text>
  <text x="1424" y="156" font-size="9" fill="#9A9387" text-anchor="end" font-style="italic">12 skills</text>
  <line x1="1124" y1="162" x2="1436" y2="162" stroke="#E5E0D2"/>
  <g font-size="9.5" fill="#5C5044">
    <rect x="1132" y="170" width="148" height="22" rx="11" fill="#F4F0E6" stroke="#D4C5A9"/><text x="1206" y="185" text-anchor="middle">team_construction</text>
    <rect x="1284" y="170" width="148" height="22" rx="11" fill="#F4F0E6" stroke="#D4C5A9"/><text x="1358" y="185" text-anchor="middle">balancing</text>

    <rect x="1132" y="196" width="148" height="22" rx="11" fill="#F4F0E6" stroke="#D4C5A9"/><text x="1206" y="211" text-anchor="middle">synthesis</text>
    <rect x="1284" y="196" width="148" height="22" rx="11" fill="#F4F0E6" stroke="#D4C5A9"/><text x="1358" y="211" text-anchor="middle">comparison</text>

    <rect x="1132" y="222" width="148" height="22" rx="11" fill="#F4F0E6" stroke="#D4C5A9"/><text x="1206" y="237" text-anchor="middle">data_query</text>
    <rect x="1284" y="222" width="148" height="22" rx="11" fill="#F4F0E6" stroke="#D4C5A9"/><text x="1358" y="237" text-anchor="middle">data_analysis</text>

    <rect x="1132" y="248" width="148" height="22" rx="11" fill="#F4F0E6" stroke="#D4C5A9"/><text x="1206" y="263" text-anchor="middle">data_catalog</text>
    <rect x="1284" y="248" width="148" height="22" rx="11" fill="#F4F0E6" stroke="#D4C5A9"/><text x="1358" y="263" text-anchor="middle">data_catalog_sync</text>

    <rect x="1132" y="274" width="148" height="22" rx="11" fill="#F4F0E6" stroke="#D4C5A9"/><text x="1206" y="289" text-anchor="middle">redact</text>
    <rect x="1284" y="274" width="148" height="22" rx="11" fill="#F4F0E6" stroke="#D4C5A9"/><text x="1358" y="289" text-anchor="middle">relevance_check</text>

    <rect x="1132" y="300" width="148" height="22" rx="11" fill="#F4F0E6" stroke="#D4C5A9"/><text x="1206" y="315" text-anchor="middle">report_needle</text>
    <rect x="1284" y="300" width="148" height="22" rx="11" fill="#F4F0E6" stroke="#D4C5A9"/><text x="1358" y="315" text-anchor="middle">report_analysis</text>
  </g>

  <rect x="1124" y="370" width="312" height="178" rx="9" fill="#FFFFFF" stroke="#D4C5A9"/>
  <text x="1136" y="388" font-size="11" font-weight="700" fill="#2D2D2D">domain/</text>
  <text x="1424" y="388" font-size="9" fill="#9A9387" text-anchor="end" font-style="italic">7 domains · one BaseSpecialist per</text>
  <line x1="1124" y1="394" x2="1436" y2="394" stroke="#E5E0D2"/>
  <g font-size="9.5" fill="#5C5044">
    <rect x="1132" y="402" width="148" height="22" rx="11" fill="#F4F0E6" stroke="#D4C5A9"/><text x="1206" y="417" text-anchor="middle">bureau</text>
    <rect x="1284" y="402" width="148" height="22" rx="11" fill="#F4F0E6" stroke="#D4C5A9"/><text x="1358" y="417" text-anchor="middle">capacity_afford</text>

    <rect x="1132" y="428" width="148" height="22" rx="11" fill="#F4F0E6" stroke="#D4C5A9"/><text x="1206" y="443" text-anchor="middle">crossbu</text>
    <rect x="1284" y="428" width="148" height="22" rx="11" fill="#F4F0E6" stroke="#D4C5A9"/><text x="1358" y="443" text-anchor="middle">customer_rel</text>

    <rect x="1132" y="454" width="148" height="22" rx="11" fill="#F4F0E6" stroke="#D4C5A9"/><text x="1206" y="469" text-anchor="middle">modeling</text>
    <rect x="1284" y="454" width="148" height="22" rx="11" fill="#F4F0E6" stroke="#D4C5A9"/><text x="1358" y="469" text-anchor="middle">spend_payments</text>

    <rect x="1132" y="480" width="148" height="22" rx="11" fill="#F4F0E6" stroke="#D4C5A9"/><text x="1206" y="495" text-anchor="middle">wcc</text>
  </g>
  <text x="1136" y="520" font-size="9" fill="#9A9387" font-style="italic">pillar-specific analytical guidance · loaded into BaseSpecialistAgent</text>
  <text x="1136" y="534" font-size="9" fill="#9A9387" font-style="italic">via skills.domain.loader (one skill per pillar/specialist)</text>

  <rect x="1124" y="560" width="312" height="92" rx="9" fill="#FFFFFF" stroke="#D4C5A9"/>
  <text x="1136" y="578" font-size="11" font-weight="700" fill="#2D2D2D">helper/</text>
  <text x="1424" y="578" font-size="9" fill="#9A9387" text-anchor="end" font-style="italic">2 skills </text>
  <line x1="1124" y1="584" x2="1436" y2="584" stroke="#E5E0D2"/>
  <g font-size="9.5" fill="#5C5044">
    <rect x="1132" y="592" width="148" height="22" rx="11" fill="#F4F0E6" stroke="#D4C5A9"/><text x="1206" y="607" text-anchor="middle">acropedia</text>
    <rect x="1284" y="592" width="148" height="22" rx="11" fill="#F4F0E6" stroke="#D4C5A9"/><text x="1358" y="607" text-anchor="middle">web_browser</text>
  </g>
  <text x="1136" y="630" font-size="9" fill="#9A9387" font-style="italic">policy / lookup helpers</text>

  <!-- ============================================================== -->
  <!-- FOOTER LEGEND                                                    -->
  <!-- ============================================================== -->
  <g transform="translate(40, 838)">
    <text x="0" y="0" font-size="10" font-weight="700" fill="#5C5044" letter-spacing="1.5">LEGEND</text>
    <line x1="60" y1="-3" x2="90" y2="-3" stroke="#3D6BA8" stroke-width="2.5" marker-end="url(#ar-blue)"/>
    <text x="98" y="0" font-size="10" fill="#5C5044">primary flow</text>
    <line x1="200" y1="-3" x2="230" y2="-3" stroke="#9A9387" stroke-width="1.2" stroke-dasharray="3,3" marker-end="url(#ar-gray)"/>
    <text x="238" y="0" font-size="10" fill="#5C5044">consult / convergence</text>
    <rect x="380" y="-9" width="40" height="14" rx="3" fill="#FFFFFF" stroke="#D4C5A9"/>
    <rect x="380" y="-9" width="40" height="5" fill="#3D6BA8"/>
    <text x="426" y="0" font-size="10" fill="#5C5044">agent (white card · coral header)</text>
    <rect x="610" y="-9" width="34" height="14" rx="7" fill="#F4F0E6" stroke="#D4C5A9"/>
    <text x="650" y="0" font-size="10" fill="#5C5044">skill</text>
    <rect x="690" y="-9" width="34" height="14" rx="7" fill="#DCE7F4" stroke="#3D6BA8" stroke-width="1.4"/>
    <text x="730" y="0" font-size="10" fill="#5C5044">output</text>
    <rect x="780" y="-9" width="14" height="12" rx="2" fill="#FFFFFF" stroke="#A89B7C" stroke-dasharray="2,2"/>
    <text x="800" y="0" font-size="10" fill="#5C5044">conceptual</text>
    <path d="M880,-3 C880,1 876,5 874,-3 C876,-7 880,-11 880,-3" fill="none" stroke="#7A7569" stroke-width="1.4"/>
    <text x="890" y="0" font-size="10" fill="#5C5044">parallel grouping</text>
  </g>
  <text x="1464" y="838" font-size="10" fill="#9A9387" text-anchor="end" font-style="italic">v2  ·  2026-04-26</text>
</svg>
