<svg xmlns="http://www.w3.org/2000/svg" viewBox="0 0 1400 960"
     font-family="ui-sans-serif, -apple-system, 'Segoe UI', system-ui, Helvetica, sans-serif">
  <defs>
    <filter id="shadow" x="-20%" y="-20%" width="140%" height="140%">
      <feGaussianBlur in="SourceAlpha" stdDeviation="1.2"/>
      <feOffset dy="1.5"/>
      <feComponentTransfer><feFuncA type="linear" slope="0.14"/></feComponentTransfer>
      <feMerge><feMergeNode/><feMergeNode in="SourceGraphic"/></feMerge>
    </filter>
    <marker id="ar-coral" viewBox="0 0 10 10" refX="9" refY="5" markerWidth="7" markerHeight="7" orient="auto-start-reverse">
      <path d="M0,1 L10,5 L0,9 Z" fill="#C15F3C"/>
    </marker>
    <marker id="ar-gray" viewBox="0 0 10 10" refX="9" refY="5" markerWidth="6" markerHeight="6" orient="auto-start-reverse">
      <path d="M0,1 L10,5 L0,9 Z" fill="#9A9387"/>
    </marker>
    <marker id="ar-sage" viewBox="0 0 10 10" refX="9" refY="5" markerWidth="6" markerHeight="6" orient="auto-start-reverse">
      <path d="M0,1 L10,5 L0,9 Z" fill="#7A8A6E"/>
    </marker>
  </defs>

  <!-- Canvas -->
  <rect width="1400" height="960" fill="#FAF9F5"/>

  <!-- Header -->
  <text x="36" y="38" font-size="22" font-weight="700" fill="#2D2D2D" letter-spacing="-0.3">AgenticSys v2 — System Architecture</text>
  <text x="36" y="58" font-size="12" fill="#7A7569">Credit Risk Reviewer · multi-agent pipeline · firewalled LLM stack</text>
  <line x1="36" y1="72" x2="1364" y2="72" stroke="#E5E0D2"/>

  <!-- Subtle alternating layer stripes (main column 0..985) -->
  <g>
    <rect x="0" y="84"  width="985" height="58"  fill="#F4F0E6" opacity="0.42"/>
    <rect x="0" y="232" width="985" height="118" fill="#F4F0E6" opacity="0.42"/>
    <rect x="0" y="490" width="985" height="100" fill="#F4F0E6" opacity="0.42"/>
    <rect x="0" y="685" width="985" height="100" fill="#F4F0E6" opacity="0.42"/>
  </g>

  <!-- Layer labels (left rail) -->
  <g font-size="10" font-weight="700" fill="#A89B7C" letter-spacing="1.8">
    <text x="36" y="115">USER</text>
    <text x="36" y="195">GUARDRAIL</text>
    <text x="36" y="298">ORCHESTRATOR</text>
    <text x="36" y="423">AGENTS</text>
    <text x="36" y="538">SKILLS</text>
    <text x="36" y="638">TOOLS</text>
    <text x="36" y="738">DATA</text>
    <text x="36" y="845">STORAGE</text>
  </g>

  <!-- ===== Layer 1: Reviewer ===== -->
  <g filter="url(#shadow)">
    <rect x="485" y="95" width="160" height="38" rx="19" fill="#FBE9DD" stroke="#C15F3C" stroke-width="1.5"/>
    <text x="565" y="119" font-size="13" font-weight="600" fill="#7A3920" text-anchor="middle">Reviewer</text>
  </g>

  <!-- ===== Layer 2: Guardrail ===== -->
  <g filter="url(#shadow)">
    <rect x="420" y="158" width="290" height="68" rx="10" fill="#FFFFFF" stroke="#D4C5A9" stroke-width="1.2"/>
    <text x="565" y="178" font-size="13" font-weight="600" fill="#2D2D2D" text-anchor="middle">GuardrailAgent</text>
    <rect x="438" y="190" width="120" height="26" rx="13" fill="#F4F0E6" stroke="#D4C5A9"/>
    <text x="498" y="207" font-size="11" fill="#5C5044" text-anchor="middle">redact</text>
    <rect x="568" y="190" width="124" height="26" rx="13" fill="#F4F0E6" stroke="#D4C5A9"/>
    <text x="630" y="207" font-size="11" fill="#5C5044" text-anchor="middle">relevance_check</text>
  </g>

  <!-- ===== Layer 3: Orchestration ===== -->
  <g filter="url(#shadow)">
    <rect x="200" y="252" width="430" height="92" rx="10" fill="#FBE9DD" stroke="#C15F3C" stroke-width="1.5"/>
    <text x="220" y="275" font-size="13" font-weight="700" fill="#7A3920">Orchestrator</text>
    <text x="220" y="290" font-size="10" fill="#9A6A4F">synthesizes specialist outputs into FinalAnswer</text>
    <rect x="220" y="304" width="120" height="26" rx="13" fill="#FFFFFF" stroke="#C15F3C"/>
    <text x="280" y="321" font-size="11" fill="#7A3920" text-anchor="middle">team_construction</text>
    <rect x="345" y="304" width="80" height="26" rx="13" fill="#FFFFFF" stroke="#C15F3C"/>
    <text x="385" y="321" font-size="11" fill="#7A3920" text-anchor="middle">balancing</text>
    <rect x="430" y="304" width="80" height="26" rx="13" fill="#FFFFFF" stroke="#C15F3C"/>
    <text x="470" y="321" font-size="11" fill="#7A3920" text-anchor="middle">synthesis</text>
    <rect x="515" y="304" width="100" height="26" rx="13" fill="#FFFFFF" stroke="#C15F3C"/>
    <text x="565" y="321" font-size="11" fill="#7A3920" text-anchor="middle">data_catalog</text>
  </g>
  <g filter="url(#shadow)">
    <rect x="660" y="252" width="220" height="92" rx="10" fill="#FFFFFF" stroke="#D4C5A9" stroke-width="1.2"/>
    <text x="770" y="275" font-size="13" font-weight="600" fill="#2D2D2D" text-anchor="middle">ChatAgent</text>
    <text x="770" y="290" font-size="10" fill="#7A7569" text-anchor="middle">format · follow-up Q&amp;A</text>
    <rect x="680" y="304" width="80" height="26" rx="13" fill="#F4F0E6" stroke="#D4C5A9"/>
    <text x="720" y="321" font-size="11" fill="#5C5044" text-anchor="middle">format</text>
    <rect x="770" y="304" width="90" height="26" rx="13" fill="#F4F0E6" stroke="#D4C5A9"/>
    <text x="815" y="321" font-size="11" fill="#5C5044" text-anchor="middle">converse</text>
  </g>
  <line x1="630" y1="298" x2="660" y2="298" stroke="#9A9387" stroke-width="1.5" marker-end="url(#ar-gray)" marker-start="url(#ar-gray)"/>

  <!-- ===== Layer 4: Agents ===== -->
  <g filter="url(#shadow)">
    <rect x="190" y="370" width="180" height="100" rx="10" fill="#FFFFFF" stroke="#D4C5A9" stroke-width="1.2"/>
    <text x="280" y="392" font-size="12" font-weight="600" fill="#2D2D2D" text-anchor="middle">ReportAgent</text>
    <text x="280" y="406" font-size="9.5" fill="#7A7569" text-anchor="middle">case-report scanner</text>
    <rect x="208" y="416" width="144" height="22" rx="11" fill="#F4F0E6" stroke="#D4C5A9"/>
    <text x="280" y="431" font-size="10" fill="#5C5044" text-anchor="middle">report_needle</text>
    <rect x="208" y="442" width="144" height="22" rx="11" fill="#F4F0E6" stroke="#D4C5A9"/>
    <text x="280" y="457" font-size="10" fill="#5C5044" text-anchor="middle">report_analysis</text>
  </g>
  <g filter="url(#shadow)">
    <rect x="385" y="370" width="200" height="100" rx="10" fill="#FFFFFF" stroke="#C15F3C" stroke-width="1.4"/>
    <text x="485" y="392" font-size="12" font-weight="600" fill="#2D2D2D" text-anchor="middle">BaseSpecialistAgent</text>
    <text x="485" y="406" font-size="9.5" fill="#9A6A4F" text-anchor="middle">× domain skill (parallel)</text>
    <rect x="402" y="416" width="80" height="22" rx="11" fill="#FBE9DD" stroke="#C15F3C"/>
    <text x="442" y="431" font-size="10" fill="#7A3920" text-anchor="middle">data_query</text>
    <rect x="487" y="416" width="80" height="22" rx="11" fill="#FBE9DD" stroke="#C15F3C"/>
    <text x="527" y="431" font-size="10" fill="#7A3920" text-anchor="middle">analysis</text>
    <text x="485" y="461" font-size="9" fill="#9A6A4F" text-anchor="middle">3-step chain · rolling summary</text>
  </g>
  <g filter="url(#shadow)">
    <rect x="600" y="370" width="170" height="100" rx="10" fill="#FFFFFF" stroke="#D4C5A9" stroke-width="1.2"/>
    <text x="685" y="392" font-size="12" font-weight="600" fill="#2D2D2D" text-anchor="middle">GeneralSpecialist</text>
    <text x="685" y="406" font-size="9.5" fill="#7A7569" text-anchor="middle">cross-domain compare</text>
    <rect x="618" y="416" width="134" height="22" rx="11" fill="#F4F0E6" stroke="#D4C5A9"/>
    <text x="685" y="431" font-size="10" fill="#5C5044" text-anchor="middle">comparison</text>
    <text x="685" y="457" font-size="9" fill="#7A7569" text-anchor="middle">surfaces conflicts</text>
  </g>
  <g filter="url(#shadow)">
    <rect x="785" y="370" width="180" height="100" rx="10" fill="#FFFFFF" stroke="#D4C5A9" stroke-width="1.2"/>
    <text x="875" y="392" font-size="12" font-weight="600" fill="#2D2D2D" text-anchor="middle">DataManagerAgent</text>
    <text x="875" y="406" font-size="9.5" fill="#7A7569" text-anchor="middle">data-side governance</text>
    <rect x="803" y="416" width="74" height="22" rx="11" fill="#F4F0E6" stroke="#D4C5A9"/>
    <text x="840" y="431" font-size="10" fill="#5C5044" text-anchor="middle">query</text>
    <rect x="881" y="416" width="76" height="22" rx="11" fill="#F4F0E6" stroke="#D4C5A9"/>
    <text x="919" y="431" font-size="10" fill="#5C5044" text-anchor="middle">describe</text>
    <text x="875" y="457" font-size="9" fill="#7A7569" text-anchor="middle">redact + access control</text>
  </g>

  <!-- ===== Layer 5: Skills ===== -->
  <g filter="url(#shadow)">
    <rect x="190" y="500" width="240" height="80" rx="10" fill="#FFFFFF" stroke="#D4C5A9"/>
    <text x="310" y="520" font-size="12" font-weight="600" fill="#2D2D2D" text-anchor="middle">workflow/</text>
    <text x="310" y="540" font-size="9.5" fill="#7A7569" text-anchor="middle">synthesis · team_construction</text>
    <text x="310" y="554" font-size="9.5" fill="#7A7569" text-anchor="middle">balancing · comparison · data_query</text>
    <text x="310" y="568" font-size="9.5" fill="#7A7569" text-anchor="middle">redact · relevance_check · report_*</text>
  </g>
  <g filter="url(#shadow)">
    <rect x="450" y="500" width="240" height="80" rx="10" fill="#FFFFFF" stroke="#D4C5A9"/>
    <text x="570" y="520" font-size="12" font-weight="600" fill="#2D2D2D" text-anchor="middle">domain/</text>
    <text x="570" y="540" font-size="9.5" fill="#7A7569" text-anchor="middle">bureau · capacity_afford · crossbu</text>
    <text x="570" y="554" font-size="9.5" fill="#7A7569" text-anchor="middle">customer_rel · modeling</text>
    <text x="570" y="568" font-size="9.5" fill="#7A7569" text-anchor="middle">spend_payments · wcc</text>
  </g>
  <g filter="url(#shadow)">
    <rect x="710" y="500" width="240" height="80" rx="10" fill="#FFFFFF" stroke="#D4C5A9"/>
    <text x="830" y="520" font-size="12" font-weight="600" fill="#2D2D2D" text-anchor="middle">helper/</text>
    <text x="830" y="540" font-size="9.5" fill="#7A7569" text-anchor="middle">acropedia</text>
    <text x="830" y="554" font-size="9.5" fill="#7A7569" text-anchor="middle">web_browser</text>
  </g>
  <text x="975" y="540" font-size="9" fill="#9A9387" text-anchor="end" font-style="italic">loaded via skills.loader</text>

  <!-- ===== Layer 6: Tools ===== -->
  <g filter="url(#shadow)">
    <rect x="280" y="610" width="280" height="58" rx="10" fill="#FFFFFF" stroke="#D4C5A9"/>
    <text x="420" y="631" font-size="12" font-weight="600" fill="#2D2D2D" text-anchor="middle">data_tools</text>
    <text x="420" y="649" font-size="9.5" fill="#7A7569" text-anchor="middle">list_tables · get_schema · query_table</text>
  </g>
  <g filter="url(#shadow)">
    <rect x="580" y="610" width="280" height="58" rx="10" fill="#FFFFFF" stroke="#D4C5A9"/>
    <text x="720" y="631" font-size="12" font-weight="600" fill="#2D2D2D" text-anchor="middle">acropedia</text>
    <text x="720" y="649" font-size="9.5" fill="#7A7569" text-anchor="middle">policy / lookup helper</text>
  </g>

  <!-- ===== Layer 7: Data Layer ===== -->
  <g filter="url(#shadow)">
    <rect x="190" y="697" width="148" height="78" rx="10" fill="#FFFFFF" stroke="#A89B7C" stroke-width="1.2"/>
    <text x="264" y="717" font-size="11.5" font-weight="600" fill="#2D2D2D" text-anchor="middle">DataGateway</text>
    <text x="264" y="735" font-size="9.5" fill="#7A7569" text-anchor="middle">case-scoped CSV</text>
    <text x="264" y="749" font-size="9.5" fill="#7A7569" text-anchor="middle">ABC + Local impl</text>
    <text x="264" y="765" font-size="9.5" fill="#7A7569" text-anchor="middle">set_case · query</text>
  </g>
  <g filter="url(#shadow)">
    <rect x="348" y="697" width="148" height="78" rx="10" fill="#FFFFFF" stroke="#A89B7C" stroke-width="1.2"/>
    <text x="422" y="717" font-size="11.5" font-weight="600" fill="#2D2D2D" text-anchor="middle">DataCatalog</text>
    <text x="422" y="735" font-size="9.5" fill="#7A7569" text-anchor="middle">YAML profiles</text>
    <text x="422" y="749" font-size="9.5" fill="#7A7569" text-anchor="middle">prompt context</text>
  </g>
  <g filter="url(#shadow)">
    <rect x="506" y="697" width="148" height="78" rx="10" fill="#FFFFFF" stroke="#A89B7C" stroke-width="1.2"/>
    <text x="580" y="717" font-size="11.5" font-weight="600" fill="#2D2D2D" text-anchor="middle">PillarAccessControl</text>
    <text x="580" y="735" font-size="9.5" fill="#7A7569" text-anchor="middle">silenced tables</text>
    <text x="580" y="749" font-size="9.5" fill="#7A7569" text-anchor="middle">+ columns</text>
  </g>
  <g filter="url(#shadow)">
    <rect x="664" y="697" width="148" height="78" rx="10" fill="#FFFFFF" stroke="#A89B7C" stroke-width="1.2"/>
    <text x="738" y="717" font-size="11.5" font-weight="600" fill="#2D2D2D" text-anchor="middle">DataGenerator</text>
    <text x="738" y="735" font-size="9.5" fill="#7A7569" text-anchor="middle">synthetic cases</text>
    <text x="738" y="749" font-size="9.5" fill="#7A7569" text-anchor="middle">fallback path</text>
  </g>
  <g filter="url(#shadow)">
    <rect x="822" y="697" width="148" height="78" rx="10" fill="#FFFFFF" stroke="#A89B7C" stroke-width="1.2"/>
    <text x="896" y="717" font-size="11.5" font-weight="600" fill="#2D2D2D" text-anchor="middle">adapter</text>
    <text x="896" y="735" font-size="9.5" fill="#7A7569" text-anchor="middle">type / format</text>
    <text x="896" y="749" font-size="9.5" fill="#7A7569" text-anchor="middle">conversion</text>
  </g>

  <!-- ===== Layer 8: Storage (cylinders) ===== -->
  <g filter="url(#shadow)">
    <path d="M210,820 L210,880 A90,9 0 0 0 390,880 L390,820" fill="#F0EAD8" stroke="#A89B7C"/>
    <ellipse cx="300" cy="820" rx="90" ry="9" fill="#F4EFDC" stroke="#A89B7C"/>
    <text x="300" y="850" font-size="12" font-weight="600" fill="#2D2D2D" text-anchor="middle">data_tables/</text>
    <text x="300" y="866" font-size="9.5" fill="#7A7569" text-anchor="middle">real · simulated · &lt;case-id&gt;/*.csv</text>
  </g>
  <g filter="url(#shadow)">
    <path d="M450,820 L450,880 A90,9 0 0 0 630,880 L630,820" fill="#F0EAD8" stroke="#A89B7C"/>
    <ellipse cx="540" cy="820" rx="90" ry="9" fill="#F4EFDC" stroke="#A89B7C"/>
    <text x="540" y="850" font-size="12" font-weight="600" fill="#2D2D2D" text-anchor="middle">reports/</text>
    <text x="540" y="866" font-size="9.5" fill="#7A7569" text-anchor="middle">&lt;case-id&gt;/*.md (curated)</text>
  </g>
  <g filter="url(#shadow)">
    <path d="M690,820 L690,880 A90,9 0 0 0 870,880 L870,820" fill="#F0EAD8" stroke="#A89B7C"/>
    <ellipse cx="780" cy="820" rx="90" ry="9" fill="#F4EFDC" stroke="#A89B7C"/>
    <text x="780" y="850" font-size="12" font-weight="600" fill="#2D2D2D" text-anchor="middle">config/</text>
    <text x="780" y="866" font-size="9.5" fill="#7A7569" text-anchor="middle">pillars · data_profiles · reports</text>
  </g>

  <!-- ===== Right rail 1: LLM Stack ===== -->
  <rect x="990" y="84" width="185" height="800" rx="12" fill="#F0E5DE" stroke="#C99B7A" stroke-width="1" opacity="0.55"/>
  <text x="1082" y="108" font-size="11" font-weight="700" fill="#7A3920" letter-spacing="1.8" text-anchor="middle">LLM STACK</text>
  <text x="1082" y="124" font-size="9.5" fill="#9A6A4F" text-anchor="middle">every LLM call routes through</text>

  <g filter="url(#shadow)">
    <rect x="1010" y="148" width="145" height="60" rx="9" fill="#FFFFFF" stroke="#C99B7A"/>
    <text x="1082" y="170" font-size="12" font-weight="600" fill="#2D2D2D" text-anchor="middle">build_llm</text>
    <text x="1082" y="186" font-size="9.5" fill="#7A7569" text-anchor="middle">factory · ChatOpenAI</text>
    <text x="1082" y="200" font-size="9.5" fill="#7A7569" text-anchor="middle">api_max_retries</text>
  </g>
  <line x1="1082" y1="208" x2="1082" y2="232" stroke="#C99B7A" stroke-width="1.5" marker-end="url(#ar-coral)"/>
  <g filter="url(#shadow)">
    <rect x="1010" y="232" width="145" height="80" rx="9" fill="#FBE9DD" stroke="#C15F3C" stroke-width="1.5"/>
    <text x="1082" y="254" font-size="12" font-weight="700" fill="#7A3920" text-anchor="middle">FirewallStack</text>
    <text x="1082" y="270" font-size="9.5" fill="#9A6A4F" text-anchor="middle">content-safety retry</text>
    <text x="1082" y="284" font-size="9.5" fill="#9A6A4F" text-anchor="middle">concurrency cap</text>
    <text x="1082" y="298" font-size="9.5" fill="#9A6A4F" text-anchor="middle">transit bus</text>
  </g>
  <line x1="1082" y1="312" x2="1082" y2="336" stroke="#C99B7A" stroke-width="1.5" marker-end="url(#ar-coral)"/>
  <g filter="url(#shadow)">
    <rect x="1010" y="336" width="145" height="64" rx="9" fill="#FFFFFF" stroke="#C99B7A"/>
    <text x="1082" y="358" font-size="12" font-weight="600" fill="#2D2D2D" text-anchor="middle">FirewalledModel</text>
    <text x="1082" y="374" font-size="9.5" fill="#7A7569" text-anchor="middle">wrapped chat model</text>
    <text x="1082" y="390" font-size="9.5" fill="#7A7569" text-anchor="middle">ainvoke / send</text>
  </g>
  <line x1="1082" y1="400" x2="1082" y2="424" stroke="#C99B7A" stroke-width="1.5" marker-end="url(#ar-coral)"/>
  <g filter="url(#shadow)">
    <rect x="1010" y="424" width="145" height="60" rx="9" fill="#FFFFFF" stroke="#C99B7A"/>
    <text x="1082" y="446" font-size="12" font-weight="600" fill="#2D2D2D" text-anchor="middle">case_scrubber</text>
    <text x="1082" y="462" font-size="9.5" fill="#7A7569" text-anchor="middle">mask CASE-ID</text>
    <text x="1082" y="476" font-size="9.5" fill="#7A7569" text-anchor="middle">at boundary</text>
  </g>

  <g filter="url(#shadow)">
    <rect x="1010" y="510" width="145" height="50" rx="9" fill="#F4F0E6" stroke="#A89B7C" stroke-dasharray="3,2"/>
    <text x="1082" y="530" font-size="11" font-weight="600" fill="#5C5044" text-anchor="middle">Provider</text>
    <text x="1082" y="546" font-size="9.5" fill="#7A7569" text-anchor="middle">OpenAI · Anthropic</text>
  </g>

  <line x1="1010" y1="600" x2="1155" y2="600" stroke="#C99B7A" stroke-dasharray="2,3" stroke-width="1"/>
  <text x="1082" y="620" font-size="9.5" fill="#9A6A4F" text-anchor="middle" font-style="italic">FirewallRejection retry</text>
  <text x="1082" y="634" font-size="9.5" fill="#9A6A4F" text-anchor="middle" font-style="italic">8x concurrency cap</text>

  <!-- ===== Right rail 2: Cross-cutting ===== -->
  <rect x="1190" y="84" width="174" height="800" rx="12" fill="#E5E8DE" stroke="#A0AB91" stroke-width="1" opacity="0.55"/>
  <text x="1277" y="108" font-size="11" font-weight="700" fill="#3F4F36" letter-spacing="1.8" text-anchor="middle">CROSS-CUTTING</text>
  <text x="1277" y="124" font-size="9.5" fill="#5E6F52" text-anchor="middle">spans every layer</text>

  <g filter="url(#shadow)">
    <rect x="1208" y="148" width="138" height="78" rx="9" fill="#FFFFFF" stroke="#A0AB91"/>
    <text x="1277" y="170" font-size="12" font-weight="600" fill="#2D2D2D" text-anchor="middle">EventLogger</text>
    <text x="1277" y="186" font-size="9.5" fill="#7A7569" text-anchor="middle">structured events</text>
    <text x="1277" y="200" font-size="9.5" fill="#7A7569" text-anchor="middle">step records</text>
    <text x="1277" y="214" font-size="9.5" fill="#7A7569" text-anchor="middle">timing / errors</text>
  </g>
  <g filter="url(#shadow)">
    <rect x="1208" y="240" width="138" height="78" rx="9" fill="#FFFFFF" stroke="#A0AB91"/>
    <text x="1277" y="262" font-size="12" font-weight="600" fill="#2D2D2D" text-anchor="middle">SessionRegistry</text>
    <text x="1277" y="278" font-size="9.5" fill="#7A7569" text-anchor="middle">case_id state</text>
    <text x="1277" y="292" font-size="9.5" fill="#7A7569" text-anchor="middle">conversation</text>
    <text x="1277" y="306" font-size="9.5" fill="#7A7569" text-anchor="middle">thread context</text>
  </g>
  <g filter="url(#shadow)">
    <rect x="1208" y="332" width="138" height="100" rx="9" fill="#FFFFFF" stroke="#A0AB91"/>
    <text x="1277" y="354" font-size="12" font-weight="600" fill="#2D2D2D" text-anchor="middle">models/types</text>
    <text x="1277" y="370" font-size="9.5" fill="#7A7569" text-anchor="middle">Pydantic schema</text>
    <text x="1277" y="384" font-size="9.5" fill="#7A7569" text-anchor="middle">FinalAnswer · TeamDraft</text>
    <text x="1277" y="398" font-size="9.5" fill="#7A7569" text-anchor="middle">SpecialistOutput</text>
    <text x="1277" y="412" font-size="9.5" fill="#7A7569" text-anchor="middle">ReportDraft · Verdict</text>
    <text x="1277" y="426" font-size="9.5" fill="#7A7569" text-anchor="middle">Conflict · Resolution</text>
  </g>
  <g filter="url(#shadow)">
    <rect x="1208" y="446" width="138" height="60" rx="9" fill="#FFFFFF" stroke="#A0AB91"/>
    <text x="1277" y="468" font-size="12" font-weight="600" fill="#2D2D2D" text-anchor="middle">config/</text>
    <text x="1277" y="484" font-size="9.5" fill="#7A7569" text-anchor="middle">pillar_loader</text>
    <text x="1277" y="498" font-size="9.5" fill="#7A7569" text-anchor="middle">report_loader</text>
  </g>

  <!-- ===== Primary flow arrows (coral) ===== -->
  <line x1="565" y1="135" x2="565" y2="156" stroke="#C15F3C" stroke-width="2.5" marker-end="url(#ar-coral)"/>
  <line x1="565" y1="228" x2="565" y2="250" stroke="#C15F3C" stroke-width="2.5" marker-end="url(#ar-coral)"/>

  <!-- Orchestrator fan-out to agents (coral) -->
  <path d="M280,344 L280,368" stroke="#C15F3C" stroke-width="2" marker-end="url(#ar-coral)" fill="none"/>
  <path d="M485,344 L485,368" stroke="#C15F3C" stroke-width="2" marker-end="url(#ar-coral)" fill="none"/>
  <path d="M685,344 L685,368" stroke="#C15F3C" stroke-width="2" marker-end="url(#ar-coral)" fill="none"/>
  <path d="M875,344 L875,368" stroke="#C15F3C" stroke-width="2" marker-end="url(#ar-coral)" fill="none"/>

  <!-- Return path: ChatAgent -> Reviewer -->
  <path d="M880,288 Q930,288 930,113 L647,113" stroke="#C15F3C" stroke-width="2" marker-end="url(#ar-coral)" fill="none"/>
  <text x="940" y="200" font-size="10" fill="#7A3920" font-style="italic">final answer</text>
  <text x="940" y="214" font-size="10" fill="#7A3920" font-style="italic">+ chat</text>

  <!-- ===== Skill consultation arrows (gray, agents -> skills) ===== -->
  <line x1="280" y1="472" x2="280" y2="498" stroke="#9A9387" stroke-width="1.2" marker-end="url(#ar-gray)" stroke-dasharray="3,3"/>
  <line x1="485" y1="472" x2="485" y2="498" stroke="#9A9387" stroke-width="1.2" marker-end="url(#ar-gray)" stroke-dasharray="3,3"/>
  <line x1="685" y1="472" x2="685" y2="498" stroke="#9A9387" stroke-width="1.2" marker-end="url(#ar-gray)" stroke-dasharray="3,3"/>
  <line x1="875" y1="472" x2="875" y2="498" stroke="#9A9387" stroke-width="1.2" marker-end="url(#ar-gray)" stroke-dasharray="3,3"/>

  <!-- ===== Tool calls (gray) ===== -->
  <path d="M485,582 L485,598 L420,598 L420,608" stroke="#9A9387" stroke-width="1.2" fill="none" marker-end="url(#ar-gray)"/>
  <path d="M875,470 Q875,540 720,608" stroke="#9A9387" stroke-width="1.2" fill="none" marker-end="url(#ar-gray)" stroke-dasharray="3,3"/>
  <path d="M830,582 L830,594 L720,594 L720,608" stroke="#9A9387" stroke-width="1.2" fill="none" marker-end="url(#ar-gray)" stroke-dasharray="3,3"/>

  <!-- ===== Data path (sage dashed) ===== -->
  <!-- data_tools -> DataGateway -->
  <path d="M420,668 L420,690 L264,690 L264,697" stroke="#7A8A6E" stroke-width="1.5" stroke-dasharray="5,4" fill="none" marker-end="url(#ar-sage)"/>
  <!-- DataGateway consults DataCatalog + AccessControl (lateral) -->
  <line x1="338" y1="736" x2="348" y2="736" stroke="#7A8A6E" stroke-width="1.2" stroke-dasharray="3,3" marker-end="url(#ar-sage)"/>
  <line x1="496" y1="736" x2="506" y2="736" stroke="#7A8A6E" stroke-width="1.2" stroke-dasharray="3,3" marker-end="url(#ar-sage)"/>
  <line x1="654" y1="736" x2="664" y2="736" stroke="#7A8A6E" stroke-width="1.2" stroke-dasharray="3,3" marker-end="url(#ar-sage)"/>
  <line x1="812" y1="736" x2="822" y2="736" stroke="#7A8A6E" stroke-width="1.2" stroke-dasharray="3,3" marker-end="url(#ar-sage)"/>
  <!-- DataGateway -> data_tables/ -->
  <path d="M264,775 L264,795 L300,795 L300,815" stroke="#7A8A6E" stroke-width="1.5" stroke-dasharray="5,4" fill="none" marker-end="url(#ar-sage)"/>
  <!-- ReportAgent -> reports/ (long curve) -->
  <path d="M280,470 Q150,640 150,790 Q150,820 540,820" stroke="#7A8A6E" stroke-width="1.5" stroke-dasharray="5,4" fill="none" marker-end="url(#ar-sage)" opacity="0.75"/>
  <!-- DataCatalog -> config/ -->
  <path d="M422,775 L422,795 L780,795 L780,815" stroke="#7A8A6E" stroke-width="1.2" stroke-dasharray="5,4" fill="none" marker-end="url(#ar-sage)" opacity="0.65"/>

  <!-- ===== LLM annotation arrow (agents -> LLM stack) ===== -->
  <path d="M965,420 Q990,420 990,272" stroke="#C15F3C" stroke-width="1.2" stroke-dasharray="2,3" fill="none" marker-end="url(#ar-coral)" opacity="0.7"/>
  <text x="975" y="438" font-size="9" fill="#7A3920" font-style="italic" text-anchor="end">all LLM calls →</text>

  <!-- ===== Legend ===== -->
  <g transform="translate(40, 905)">
    <text x="0" y="0" font-size="10" font-weight="700" fill="#5C5044" letter-spacing="1">LEGEND</text>
    <line x1="60" y1="-3" x2="90" y2="-3" stroke="#C15F3C" stroke-width="2.5" marker-end="url(#ar-coral)"/>
    <text x="98" y="0" font-size="10" fill="#5C5044">primary flow</text>
    <line x1="190" y1="-3" x2="220" y2="-3" stroke="#9A9387" stroke-width="1.2" stroke-dasharray="3,3" marker-end="url(#ar-gray)"/>
    <text x="228" y="0" font-size="10" fill="#5C5044">skill / tool consult</text>
    <line x1="340" y1="-3" x2="370" y2="-3" stroke="#7A8A6E" stroke-width="1.5" stroke-dasharray="5,4" marker-end="url(#ar-sage)"/>
    <text x="378" y="0" font-size="10" fill="#5C5044">data path</text>
    <rect x="450" y="-9" width="14" height="12" rx="2" fill="#FBE9DD" stroke="#C15F3C"/>
    <text x="470" y="0" font-size="10" fill="#5C5044">primary node</text>
    <rect x="560" y="-9" width="14" height="12" rx="2" fill="#FFFFFF" stroke="#D4C5A9"/>
    <text x="580" y="0" font-size="10" fill="#5C5044">supporting node</text>
  </g>
  <text x="1364" y="905" font-size="10" fill="#9A9387" text-anchor="end" font-style="italic">v2 · 2026-04-25</text>
</svg>
